<svg xmlns="http://www.w3.org/2000/svg" width="106.902" height="17.406" viewBox="0 0 106.902 17.406"><defs><style>.a{fill:#61aba2;}</style></defs><path class="a" d="M8.154.09A8.317,8.317,0,0,1,4.428-.693,5.639,5.639,0,0,1,2-2.916a6.487,6.487,0,0,1-.846-3.348,10.6,10.6,0,0,1,1-4.7A7.765,7.765,0,0,1,4.86-14.139a6.763,6.763,0,0,1,3.8-1.125,4.022,4.022,0,0,1,2.952,1,3.547,3.547,0,0,1,1.008,2.637,3.5,3.5,0,0,1-.387,1.764,1.216,1.216,0,0,1-1.107.666,1.221,1.221,0,0,1-.792-.234.83.83,0,0,1-.288-.684,4.351,4.351,0,0,1,.072-.594,4.646,4.646,0,0,0,.108-.864q0-1.638-1.746-1.638a3.834,3.834,0,0,0-2.268.774,5.411,5.411,0,0,0-1.746,2.277A8.771,8.771,0,0,0,3.8-6.588,4.457,4.457,0,0,0,5-3.249,4.9,4.9,0,0,0,8.568-2.07a9.8,9.8,0,0,0,2.367-.3,18.4,18.4,0,0,0,2.655-.909,1.266,1.266,0,0,1,.45-.108.485.485,0,0,1,.432.216.988.988,0,0,1,.144.558A1.712,1.712,0,0,1,13.428-.99a12.372,12.372,0,0,1-2.655.819A14.079,14.079,0,0,1,8.154.09ZM22.212-5.526a.393.393,0,0,1,.36.234A1.245,1.245,0,0,1,22.7-4.7q0,.864-.522,1.026A8.2,8.2,0,0,1,19.8-3.24,4.493,4.493,0,0,1,18.45-.819,3.321,3.321,0,0,1,16.164.09a3.194,3.194,0,0,1-1.845-.522,3.315,3.315,0,0,1-1.161-1.386,4.439,4.439,0,0,1-.4-1.872,5.5,5.5,0,0,1,.522-2.439A4.1,4.1,0,0,1,14.724-7.8a3.626,3.626,0,0,1,2.034-.6,2.8,2.8,0,0,1,2.205.945,4.048,4.048,0,0,1,.981,2.331,10.91,10.91,0,0,0,2.016-.36A1.058,1.058,0,0,1,22.212-5.526Zm-5.9,3.708a1.305,1.305,0,0,0,1-.468,2.6,2.6,0,0,0,.567-1.35,2.485,2.485,0,0,1-.855-.99,2.931,2.931,0,0,1-.3-1.3,3.119,3.119,0,0,1,.054-.576h-.09a1.413,1.413,0,0,0-1.2.693,3.416,3.416,0,0,0-.477,1.953A2.511,2.511,0,0,0,15.4-2.34,1.117,1.117,0,0,0,16.308-1.818ZM22.986.09a1.547,1.547,0,0,1-1.323-.747A3.215,3.215,0,0,1,21.15-2.52a15.718,15.718,0,0,1,.18-2.475,15.537,15.537,0,0,1,.594-2.385,1.506,1.506,0,0,1,.5-.774,1.774,1.774,0,0,1,1.026-.234A.888.888,0,0,1,24-8.262a.461.461,0,0,1,.153.378,7.472,7.472,0,0,1-.2.972q-.18.666-.288,1.206a17.026,17.026,0,0,0-.36,2.52,1.123,1.123,0,0,0,.09.531.309.309,0,0,0,.288.153q.27,0,.675-.54a7.936,7.936,0,0,0,.864-1.638,21.89,21.89,0,0,0,.891-2.7,1.415,1.415,0,0,1,.441-.774,1.423,1.423,0,0,1,.891-.234,1.189,1.189,0,0,1,.576.1.4.4,0,0,1,.162.369,17.437,17.437,0,0,1-.45,2.466,19.953,19.953,0,0,0-.5,2.844.86.86,0,0,0,.144.531.453.453,0,0,0,.378.189,1.406,1.406,0,0,0,.855-.441,14.446,14.446,0,0,0,1.323-1.431.632.632,0,0,1,.486-.252.416.416,0,0,1,.369.216,1.117,1.117,0,0,1,.135.594,1.655,1.655,0,0,1-.342,1.116A7.966,7.966,0,0,1,28.917-.522,3.492,3.492,0,0,1,26.892.09a1.378,1.378,0,0,1-1.269-.666,3.614,3.614,0,0,1-.405-1.872A4.216,4.216,0,0,1,24.3-.567,1.789,1.789,0,0,1,22.986.09ZM36.738-5.922a.919.919,0,0,1,.675.279.941.941,0,0,1,.279.693,1.363,1.363,0,0,1-.108.5,3.045,3.045,0,0,1-.81,1.116,1.725,1.725,0,0,1-1.152.45,1.149,1.149,0,0,1-.855-.36,1.333,1.333,0,0,1-.351-.972q0-.342.036-.738a3.833,3.833,0,0,0,.036-.4.32.32,0,0,0-.063-.216.2.2,0,0,0-.153-.072q-.252,0-.684.6a8.845,8.845,0,0,0-.864,1.593,12.93,12.93,0,0,0-.7,2.088A2.85,2.85,0,0,1,31.572-.2a1.049,1.049,0,0,1-.828.288.983.983,0,0,1-.963-.72,6.9,6.9,0,0,1-.279-2.3,14.659,14.659,0,0,1,.666-4.446,1.354,1.354,0,0,1,.531-.765,1.873,1.873,0,0,1,1.035-.243,1.014,1.014,0,0,1,.5.09.372.372,0,0,1,.144.342,6.862,6.862,0,0,1-.27,1.3q-.18.72-.288,1.26a12.912,12.912,0,0,0-.18,1.332,10.235,10.235,0,0,1,1.332-2.52,5.289,5.289,0,0,1,1.44-1.386,2.565,2.565,0,0,1,1.278-.414,1.046,1.046,0,0,1,.8.3,1.231,1.231,0,0,1,.279.873,7.846,7.846,0,0,1-.2,1.3ZM41.274.486A2.114,2.114,0,0,1,39.843.054a1.271,1.271,0,0,1-.495-.972,1.107,1.107,0,0,1,.342-.81A1.367,1.367,0,0,1,40.7-2.07a3.95,3.95,0,0,1,.549.045q.315.045.477.063a2.317,2.317,0,0,0-.207-.882,4.407,4.407,0,0,0-.477-.8q-.288-.387-.54-.675a11.76,11.76,0,0,1-1.107,1.764,13.184,13.184,0,0,1-1.2,1.332.964.964,0,0,1-.684.324.591.591,0,0,1-.468-.207.754.754,0,0,1-.18-.513,1.026,1.026,0,0,1,.252-.666l.234-.288A23.263,23.263,0,0,0,38.844-4.59q.306-.522.72-1.395t.81-1.809A1.385,1.385,0,0,1,41.8-8.586a1.888,1.888,0,0,1,.7.09.3.3,0,0,1,.2.288,1.325,1.325,0,0,1-.072.342,2.6,2.6,0,0,1-.2.468A2.567,2.567,0,0,0,42.1-6.3a1.2,1.2,0,0,0,.189.594,6.742,6.742,0,0,0,.585.81,11.436,11.436,0,0,1,.873,1.287,2.338,2.338,0,0,1,.3,1.161,4.877,4.877,0,0,1-.036.5,5.74,5.74,0,0,0,2.07-1.818.632.632,0,0,1,.486-.252.416.416,0,0,1,.369.216,1.117,1.117,0,0,1,.135.594,1.744,1.744,0,0,1-.342,1.116A5.489,5.489,0,0,1,45.009-.567a4.879,4.879,0,0,1-2.025.441A2.555,2.555,0,0,1,41.274.486Zm10.782-3.96a.416.416,0,0,1,.369.216,1.117,1.117,0,0,1,.135.594,1.994,1.994,0,0,1-.306,1.116A3.5,3.5,0,0,1,50.931-.342,4.134,4.134,0,0,1,48.978.09,3.465,3.465,0,0,1,46.3-.945a3.969,3.969,0,0,1-.954-2.8,5.209,5.209,0,0,1,.522-2.313,4.274,4.274,0,0,1,1.449-1.7,3.644,3.644,0,0,1,2.1-.63,2.281,2.281,0,0,1,1.674.621,2.256,2.256,0,0,1,.63,1.683,2.91,2.91,0,0,1-.891,2.133A6.462,6.462,0,0,1,47.79-2.538a1.513,1.513,0,0,0,1.458.828,2.034,2.034,0,0,0,1.215-.342A5.878,5.878,0,0,0,51.57-3.2.619.619,0,0,1,52.056-3.474ZM49.1-6.624a1.319,1.319,0,0,0-1.125.774,3.608,3.608,0,0,0-.459,1.872v.036A4.09,4.09,0,0,0,49.194-4.7a1.486,1.486,0,0,0,.612-1.17.783.783,0,0,0-.189-.549A.66.66,0,0,0,49.1-6.624ZM62.8.144a7.11,7.11,0,0,1-3.834-.909,3.061,3.061,0,0,1-1.44-2.781,2.765,2.765,0,0,1,.342-1.512,1.128,1.128,0,0,1,1.008-.522,1.205,1.205,0,0,1,.792.252.8.8,0,0,1,.306.648,3.244,3.244,0,0,1-.054.63A2,2,0,0,1,59.9-3.8a2.547,2.547,0,0,0-.027.378,1.28,1.28,0,0,0,.819,1.206,5.384,5.384,0,0,0,2.3.4,4.447,4.447,0,0,0,2.394-.549,1.728,1.728,0,0,0,.864-1.539,1.522,1.522,0,0,0-.4-1.053,3.287,3.287,0,0,0-.99-.738q-.594-.3-1.674-.729a18.723,18.723,0,0,1-2.259-1.026,4.685,4.685,0,0,1-1.494-1.323,3.393,3.393,0,0,1-.621-2.079,3.969,3.969,0,0,1,.693-2.3,4.488,4.488,0,0,1,2-1.566,7.764,7.764,0,0,1,3.069-.558,7.212,7.212,0,0,1,2.412.387,3.908,3.908,0,0,1,1.755,1.179,2.944,2.944,0,0,1,.657,1.944,3.412,3.412,0,0,1-.342,1.71,1.1,1.1,0,0,1-1.008.576,1.117,1.117,0,0,1-.783-.288.9.9,0,0,1-.315-.684,3.424,3.424,0,0,1,.054-.63q.054-.54.054-.684a1.248,1.248,0,0,0-.738-1.152,3.849,3.849,0,0,0-1.836-.4,4.142,4.142,0,0,0-2.367.567,1.827,1.827,0,0,0-.819,1.593,1.722,1.722,0,0,0,.423,1.17,3.5,3.5,0,0,0,1.053.81q.63.324,1.764.774a22.7,22.7,0,0,1,2.2,1.008,4.375,4.375,0,0,1,1.413,1.224,3.073,3.073,0,0,1,.585,1.908A3.764,3.764,0,0,1,67.113-1,7.31,7.31,0,0,1,62.8.144Zm15.48-4.158a.416.416,0,0,1,.369.216,1.117,1.117,0,0,1,.135.594,1.655,1.655,0,0,1-.342,1.116A6.576,6.576,0,0,1,76.563-.594a5.218,5.218,0,0,1-2.6.684A4.008,4.008,0,0,1,71.028-.936a3.757,3.757,0,0,1-1.044-2.808,5.209,5.209,0,0,1,.522-2.313,4.274,4.274,0,0,1,1.449-1.7,3.644,3.644,0,0,1,2.1-.63,2.281,2.281,0,0,1,1.674.621,2.256,2.256,0,0,1,.63,1.683,2.91,2.91,0,0,1-.891,2.133A6.443,6.443,0,0,1,72.45-2.538a1.768,1.768,0,0,0,1.71.828A3.937,3.937,0,0,0,76-2.277,6.093,6.093,0,0,0,77.8-3.762.632.632,0,0,1,78.282-4.014Zm-4.536-2.61a1.319,1.319,0,0,0-1.125.774,3.608,3.608,0,0,0-.459,1.872v.036A4.09,4.09,0,0,0,73.836-4.7a1.486,1.486,0,0,0,.612-1.17.783.783,0,0,0-.189-.549A.66.66,0,0,0,73.746-6.624ZM79.452.09A2.189,2.189,0,0,1,77.67-.72,3.237,3.237,0,0,1,77-2.844a5.852,5.852,0,0,1,.666-2.727,5.685,5.685,0,0,1,1.773-2.07,4,4,0,0,1,2.349-.783.7.7,0,0,1,.531.153,1.293,1.293,0,0,1,.225.549,4.226,4.226,0,0,1,.792-.072q.882,0,.882.63a13.5,13.5,0,0,1-.27,1.8,17.47,17.47,0,0,0-.414,2.88.653.653,0,0,0,.135.432.435.435,0,0,0,.351.162,1.368,1.368,0,0,0,.828-.441,15.4,15.4,0,0,0,1.314-1.431.632.632,0,0,1,.486-.252.416.416,0,0,1,.369.216,1.116,1.116,0,0,1,.135.594,1.655,1.655,0,0,1-.342,1.116A9.067,9.067,0,0,1,85.248-.54a2.67,2.67,0,0,1-1.6.63,1.681,1.681,0,0,1-1.089-.4,2.468,2.468,0,0,1-.747-1.107A2.736,2.736,0,0,1,79.452.09ZM80.1-1.728a.988.988,0,0,0,.756-.468,3.035,3.035,0,0,0,.522-1.242l.666-3.312a2.18,2.18,0,0,0-1.395.567,3.82,3.82,0,0,0-1.017,1.449,4.877,4.877,0,0,0-.378,1.908A1.275,1.275,0,0,0,79.479-2,.765.765,0,0,0,80.1-1.728ZM86.976.09a.983.983,0,0,1-.963-.72,6.9,6.9,0,0,1-.279-2.3A14.659,14.659,0,0,1,86.4-7.38a1.354,1.354,0,0,1,.531-.765,1.873,1.873,0,0,1,1.035-.243,1.014,1.014,0,0,1,.5.09.372.372,0,0,1,.144.342,6.862,6.862,0,0,1-.27,1.3q-.18.72-.288,1.26a12.912,12.912,0,0,0-.18,1.332,10.235,10.235,0,0,1,1.332-2.52,5.223,5.223,0,0,1,1.449-1.386,2.635,2.635,0,0,1,1.305-.414,1.034,1.034,0,0,1,1.17,1.17,9.044,9.044,0,0,1-.162,1.134,6.632,6.632,0,0,0-.144.9q0,.63.45.63a2.163,2.163,0,0,0,1.3-.792.689.689,0,0,1,.486-.234.419.419,0,0,1,.369.207.992.992,0,0,1,.135.549A1.452,1.452,0,0,1,95.2-3.78a4.877,4.877,0,0,1-1.179.891,2.939,2.939,0,0,1-1.431.369,1.986,1.986,0,0,1-1.449-.486,1.757,1.757,0,0,1-.495-1.314,2.748,2.748,0,0,1,.054-.54q.036-.36.036-.486,0-.288-.2-.288-.27,0-.711.6a8.462,8.462,0,0,0-.873,1.593,12.929,12.929,0,0,0-.7,2.088,2.807,2.807,0,0,1-.459,1.143A1.036,1.036,0,0,1,86.976.09Zm10.35,0a3.672,3.672,0,0,1-2.745-1A3.6,3.6,0,0,1,93.6-3.546,5.425,5.425,0,0,1,94.176-6.1,4.387,4.387,0,0,1,95.67-7.794,3.491,3.491,0,0,1,97.6-8.388a2.008,2.008,0,0,1,1.539.585,2.108,2.108,0,0,1,.549,1.5,2.329,2.329,0,0,1-.333,1.278,1,1,0,0,1-.873.522.866.866,0,0,1-.549-.162.539.539,0,0,1-.207-.45,1.345,1.345,0,0,1,.036-.288q.036-.162.054-.234a1.6,1.6,0,0,0,.09-.5.51.51,0,0,0-.117-.36.432.432,0,0,0-.333-.126,1.072,1.072,0,0,0-.774.369,2.627,2.627,0,0,0-.576,1,4.25,4.25,0,0,0-.216,1.386q0,2.088,1.818,2.088a3.213,3.213,0,0,0,1.593-.5,6.493,6.493,0,0,0,1.683-1.485.632.632,0,0,1,.486-.252.416.416,0,0,1,.369.216,1.116,1.116,0,0,1,.135.594,1.744,1.744,0,0,1-.342,1.116A5.839,5.839,0,0,1,99.6-.477,5.244,5.244,0,0,1,97.326.09Zm9.558-8.478a1.183,1.183,0,0,1,.873.3,1.183,1.183,0,0,1,.3.873,14.25,14.25,0,0,1-.2,1.764q-.18,1.1-.288,2.079a20.116,20.116,0,0,0-.108,2.187,1.409,1.409,0,0,1-.279.981,1.2,1.2,0,0,1-.909.3,1.1,1.1,0,0,1-.864-.306,1.353,1.353,0,0,1-.27-.918,18.061,18.061,0,0,1,.252-2.376,16.955,16.955,0,0,0,.216-1.836q0-.288-.2-.288-.234,0-.666.6a8.845,8.845,0,0,0-.864,1.593,12.929,12.929,0,0,0-.7,2.088,2.807,2.807,0,0,1-.459,1.143,1.036,1.036,0,0,1-.819.3.9.9,0,0,1-.819-.4,2.948,2.948,0,0,1-.351-1.251q-.09-.846-.09-2.484a31.176,31.176,0,0,1,.567-5.778,17.364,17.364,0,0,1,1.674-5.049q1.107-2.043,2.655-2.043a1.581,1.581,0,0,1,1.341.711,3.08,3.08,0,0,1,.513,1.845,7.888,7.888,0,0,1-1.062,3.771A24.384,24.384,0,0,1,102.87-6.03q-.054.936-.054,1.926A10.33,10.33,0,0,1,104.139-6.6a5.163,5.163,0,0,1,1.44-1.377A2.635,2.635,0,0,1,106.884-8.388Zm-1.728-6.75q-.324,0-.72.927a15.707,15.707,0,0,0-.765,2.5,33.411,33.411,0,0,0-.6,3.429,12.881,12.881,0,0,0,1.845-2.862,6.683,6.683,0,0,0,.729-2.808,2.41,2.41,0,0,0-.126-.882Q105.39-15.138,105.156-15.138Z" transform="translate(-1.152 16.92)"/></svg>